<svg width="64" height="64" viewBox="0 0 64 64" fill="none" xmlns="http://www.w3.org/2000/svg">
<path d="M63.3279 49.8432C63.2383 50.4128 62.7455 50.8352 62.1695 50.8352H1.83672C1.26072 50.8352 0.767915 50.4128 0.678315 49.8432C0.652715 49.6768 0.0767153 45.6512 4.88312 41.1392C7.14872 39.0144 11.4175 37.9904 15.5519 36.9984C19.5391 36.0384 24.0511 34.9568 24.7103 33.1072C26.1439 29.0624 25.0239 23.6096 24.9407 23.2064C21.5743 21.4208 18.9631 18.3936 17.8815 14.6752C17.7023 14.0544 18.0543 13.4016 18.6815 13.216C19.3023 13.0304 19.9551 13.3888 20.1407 14.016C21.6063 19.072 26.4895 22.6048 31.9999 22.6048C37.5103 22.6048 42.3935 19.072 43.8719 14.0096C44.0575 13.3888 44.7103 13.0304 45.3311 13.2096C45.9519 13.3888 46.3103 14.0416 46.1311 14.6688C45.0239 18.4576 42.3359 21.536 38.8735 23.3024C38.7903 23.7696 37.8751 29.0752 39.3023 33.0944C39.9551 34.944 44.4735 36.0256 48.4607 36.9856C52.5887 37.9776 56.8639 39.0016 59.1295 41.1264C63.9231 45.6448 63.3535 49.6704 63.3279 49.8432Z" fill="#FF2526"/>
</svg>
